<svg xmlns="http://www.w3.org/2000/svg" xmlns:xlink="http://www.w3.org/1999/xlink" width="170" height="36" viewBox="0 0 170 36">
  <defs>
    <clipPath id="clip-path">
      <rect id="crop" width="170" height="36" fill="none"/>
    </clipPath>
    <clipPath id="clip-path-2">
      <rect id="矩形_2" data-name="矩形 2" width="1024" height="1758" transform="translate(-42 -1681)" fill="none"/>
    </clipPath>
    <clipPath id="clip-path-3">
      <path id="路径_1" data-name="路径 1" d="M36.026,18.645,28.532,31.754a1.881,1.881,0,0,1-1.176.686H12.368a1.881,1.881,0,0,1-1.176-.686L3.7,18.645a1.92,1.92,0,0,1,0-1.372L11.192,4.164a1.881,1.881,0,0,1,1.176-.686H27.356a1.881,1.881,0,0,1,1.176.686l7.494,13.109A1.92,1.92,0,0,1,36.026,18.645Zm3.2-2.685L31.259,2.02a4.383,4.383,0,0,0-3.428-2H11.893a4.382,4.382,0,0,0-3.427,2L.5,15.96a4.475,4.475,0,0,0,0,4L8.466,33.9a4.383,4.383,0,0,0,3.427,2H27.831a4.384,4.384,0,0,0,3.428-2l7.969-13.94A4.475,4.475,0,0,0,39.228,15.96Z" fill="none" clip-rule="evenodd"/>
    </clipPath>
    <clipPath id="clip-path-5">
      <rect id="矩形_4" data-name="矩形 4" width="11.842" height="2.538" transform="translate(8.02 18.193)" fill="none"/>
    </clipPath>
    <clipPath id="clip-path-7">
      <rect id="矩形_7" data-name="矩形 7" width="9.52" height="2.538" transform="translate(10.342 22.745)" fill="none"/>
    </clipPath>
    <clipPath id="clip-path-9">
      <rect id="矩形_10" data-name="矩形 10" width="7.198" height="2.538" transform="translate(12.664 27.298)" fill="none"/>
    </clipPath>
    <clipPath id="clip-path-11">
      <path id="路径_2" data-name="路径 2" d="M60.223,27.911H56.852V19.17H48.143v8.742H44.758V8.239h3.385v8.188h8.709V8.239h3.371V27.911" fill="none" clip-rule="evenodd"/>
    </clipPath>
    <clipPath id="clip-path-13">
      <path id="路径_3" data-name="路径 3" d="M68.342,15.657a2.726,2.726,0,0,0-2.16.945,4.922,4.922,0,0,0-1.05,2.635h6.194v-.243a6.034,6.034,0,0,0-.208-1.25,3.2,3.2,0,0,0-.515-1.067,2.488,2.488,0,0,0-.9-.743A3.013,3.013,0,0,0,68.342,15.657Zm.388,12.525a7.387,7.387,0,0,1-2.889-.541,6.36,6.36,0,0,1-2.181-1.486,6.524,6.524,0,0,1-1.378-2.243,7.975,7.975,0,0,1-.481-2.8v-.54a9.1,9.1,0,0,1,.508-3.128A7.17,7.17,0,0,1,63.7,15.069a6.135,6.135,0,0,1,2.081-1.513,6.247,6.247,0,0,1,2.575-.534,6.524,6.524,0,0,1,2.742.534,5.177,5.177,0,0,1,1.927,1.493,6.441,6.441,0,0,1,1.137,2.283,10.676,10.676,0,0,1,.374,2.9v1.405H65.078a5.291,5.291,0,0,0,.355,1.567,3.859,3.859,0,0,0,.782,1.237,3.611,3.611,0,0,0,1.171.817,3.769,3.769,0,0,0,1.532.3,4.3,4.3,0,0,0,2.093-.486,4.911,4.911,0,0,0,1.545-1.338l1.753,1.689a5.988,5.988,0,0,1-.863,1.02,5.833,5.833,0,0,1-1.2.878,6.847,6.847,0,0,1-1.558.622A7.478,7.478,0,0,1,68.73,28.182Z" fill="none" clip-rule="evenodd"/>
    </clipPath>
    <clipPath id="clip-path-15">
      <path id="路径_4" data-name="路径 4" d="M81.251,18.1l2.756-4.81h3.612l-4.428,7.2,4.575,7.418H84.18l-2.89-5-2.876,5H74.8l4.575-7.418-4.415-7.2h3.585l2.7,4.81" fill="none" clip-rule="evenodd"/>
    </clipPath>
    <clipPath id="clip-path-17">
      <path id="路径_5" data-name="路径 5" d="M104.228,22.844a3.017,3.017,0,0,0-.174-1.06,2.092,2.092,0,0,0-.635-.858,5.282,5.282,0,0,0-1.271-.75,19.794,19.794,0,0,0-2.08-.75,19.916,19.916,0,0,1-2.569-.959,8.811,8.811,0,0,1-2.026-1.257,5.35,5.35,0,0,1-1.332-1.648,4.584,4.584,0,0,1-.481-2.135,4.8,4.8,0,0,1,.5-2.188,5.167,5.167,0,0,1,1.411-1.73,6.692,6.692,0,0,1,2.181-1.135,9.213,9.213,0,0,1,2.809-.4,8.577,8.577,0,0,1,2.956.479,6.618,6.618,0,0,1,2.214,1.3,5.646,5.646,0,0,1,1.867,4.229h-3.372a3.8,3.8,0,0,0-.22-1.317,2.744,2.744,0,0,0-.676-1.04,3.114,3.114,0,0,0-1.15-.683,5,5,0,0,0-1.646-.243,5.282,5.282,0,0,0-1.552.2,3.1,3.1,0,0,0-1.09.567,2.234,2.234,0,0,0-.642.865,2.78,2.78,0,0,0-.208,1.081,2.173,2.173,0,0,0,1.024,1.824,10.842,10.842,0,0,0,3.124,1.351,18.037,18.037,0,0,1,2.849,1.081,8.154,8.154,0,0,1,2,1.344,4.86,4.86,0,0,1,1.184,1.689,5.487,5.487,0,0,1,.388,2.115,5.009,5.009,0,0,1-.488,2.236,4.763,4.763,0,0,1-1.392,1.688,6.49,6.49,0,0,1-2.187,1.068,10.278,10.278,0,0,1-2.863.372,10.142,10.142,0,0,1-2.769-.386,7.771,7.771,0,0,1-2.448-1.162A6.028,6.028,0,0,1,93.72,24.7a5.427,5.427,0,0,1-.662-2.73h3.384a3.6,3.6,0,0,0,.328,1.6,2.987,2.987,0,0,0,.9,1.094,3.747,3.747,0,0,0,1.344.621,6.8,6.8,0,0,0,1.672.2,4.147,4.147,0,0,0,2.656-.723,2.34,2.34,0,0,0,.889-1.912" fill="none" clip-rule="evenodd"/>
    </clipPath>
    <clipPath id="clip-path-19">
      <path id="路径_6" data-name="路径 6" d="M115.667,25.56a3.279,3.279,0,0,0,1.1-.182,2.756,2.756,0,0,0,.9-.514,2.591,2.591,0,0,0,.615-.79,2.442,2.442,0,0,0,.261-1h3.064a4.728,4.728,0,0,1-.515,1.986,5.4,5.4,0,0,1-1.271,1.628,6.009,6.009,0,0,1-1.853,1.1,6.371,6.371,0,0,1-2.261.4,6.776,6.776,0,0,1-2.91-.582,5.842,5.842,0,0,1-2.06-1.58,6.651,6.651,0,0,1-1.224-2.338,9.835,9.835,0,0,1-.4-2.837v-.473a9.835,9.835,0,0,1,.4-2.837,6.714,6.714,0,0,1,1.224-2.344,5.818,5.818,0,0,1,2.054-1.588,7.405,7.405,0,0,1,5.291-.176,5.44,5.44,0,0,1,1.846,1.135,5.206,5.206,0,0,1,1.2,1.743,6.122,6.122,0,0,1,.475,2.229h-3.064a3.441,3.441,0,0,0-.234-1.107,2.844,2.844,0,0,0-.575-.919,2.716,2.716,0,0,0-.89-.622,2.891,2.891,0,0,0-1.177-.229,2.967,2.967,0,0,0-1.632.412,3.042,3.042,0,0,0-1.017,1.074,4.576,4.576,0,0,0-.515,1.513,10.6,10.6,0,0,0-.14,1.716v.473a10.63,10.63,0,0,0,.14,1.736,4.581,4.581,0,0,0,.515,1.507,2.805,2.805,0,0,0,2.649,1.472" fill="none" clip-rule="evenodd"/>
    </clipPath>
    <clipPath id="clip-path-21">
      <path id="路径_7" data-name="路径 7" d="M126.718,14.887a5.388,5.388,0,0,1,1.766-1.372,5.105,5.105,0,0,1,2.261-.493,5.932,5.932,0,0,1,1.926.3,3.614,3.614,0,0,1,1.485.953,4.4,4.4,0,0,1,.95,1.7,8.4,8.4,0,0,1,.334,2.534v9.4h-3.251V18.48a2.9,2.9,0,0,0-.649-2.141,2.634,2.634,0,0,0-1.906-.628,3.132,3.132,0,0,0-1.746.473,3.479,3.479,0,0,0-1.17,1.283V27.911h-3.251V7.158h3.251v7.729" fill="none" clip-rule="evenodd"/>
    </clipPath>
    <clipPath id="clip-path-23">
      <path id="路径_8" data-name="路径 8" d="M140.271,20.75a8.345,8.345,0,0,0,.2,1.865,4.672,4.672,0,0,0,.629,1.533,3.16,3.16,0,0,0,1.09,1.034,3.142,3.142,0,0,0,4.214-1.034,4.875,4.875,0,0,0,.629-1.533,8.111,8.111,0,0,0,.208-1.865v-.283a7.962,7.962,0,0,0-.208-1.845A4.8,4.8,0,0,0,146.4,17.1a3.3,3.3,0,0,0-1.091-1.048,3.03,3.03,0,0,0-1.571-.391,2.96,2.96,0,0,0-1.559.391A3.335,3.335,0,0,0,141.1,17.1a4.678,4.678,0,0,0-.629,1.526,8.191,8.191,0,0,0-.2,1.845Zm-3.251-.283a9.145,9.145,0,0,1,.461-2.953,7.021,7.021,0,0,1,1.325-2.357,6.056,6.056,0,0,1,2.107-1.567,6.717,6.717,0,0,1,2.823-.568,6.843,6.843,0,0,1,2.849.568,6.032,6.032,0,0,1,2.12,1.567,6.922,6.922,0,0,1,1.318,2.357,9.256,9.256,0,0,1,.455,2.953v.283a9.307,9.307,0,0,1-.455,2.959,6.834,6.834,0,0,1-1.318,2.358,6.021,6.021,0,0,1-2.113,1.554,7.451,7.451,0,0,1-5.673,0,6.021,6.021,0,0,1-2.113-1.554,6.93,6.93,0,0,1-1.325-2.358,9.2,9.2,0,0,1-.461-2.959Z" fill="none" clip-rule="evenodd"/>
    </clipPath>
    <clipPath id="clip-path-25">
      <path id="路径_9" data-name="路径 9" d="M155.016,20.75a8.344,8.344,0,0,0,.2,1.865,4.694,4.694,0,0,0,.629,1.533,3.16,3.16,0,0,0,1.09,1.034,3.142,3.142,0,0,0,4.214-1.034,4.875,4.875,0,0,0,.629-1.533,8.112,8.112,0,0,0,.207-1.865v-.283a7.963,7.963,0,0,0-.207-1.845,4.775,4.775,0,0,0-.636-1.526,3.288,3.288,0,0,0-1.09-1.048,3.031,3.031,0,0,0-1.572-.391,2.959,2.959,0,0,0-1.558.391,3.335,3.335,0,0,0-1.077,1.048,4.7,4.7,0,0,0-.629,1.526,8.19,8.19,0,0,0-.2,1.845Zm-3.25-.283a9.145,9.145,0,0,1,.461-2.953,7.021,7.021,0,0,1,1.325-2.357,6.056,6.056,0,0,1,2.107-1.567,6.716,6.716,0,0,1,2.822-.568,6.847,6.847,0,0,1,2.85.568,6.031,6.031,0,0,1,2.12,1.567,6.922,6.922,0,0,1,1.318,2.357,9.256,9.256,0,0,1,.455,2.953v.283a9.307,9.307,0,0,1-.455,2.959,6.834,6.834,0,0,1-1.318,2.358,6.03,6.03,0,0,1-2.113,1.554,7.451,7.451,0,0,1-5.673,0,6.021,6.021,0,0,1-2.113-1.554,6.93,6.93,0,0,1-1.325-2.358,9.2,9.2,0,0,1-.461-2.959Z" fill="none" clip-rule="evenodd"/>
    </clipPath>
    <clipPath id="clip-path-27">
      <rect id="矩形_29" data-name="矩形 29" width="3.251" height="20.753" transform="translate(166.627 7.158)" fill="none"/>
    </clipPath>
  </defs>
  <g id="footer-logo" clip-path="url(#clip-path)">
    <g id="组_4" data-name="组 4">
      <g id="组_3" data-name="组 3" clip-path="url(#clip-path-2)">
        <g id="组_2" data-name="组 2">
          <g id="组_1" data-name="组 1" clip-path="url(#clip-path-3)">
            <rect id="矩形_1" data-name="矩形 1" width="49.673" height="45.874" transform="translate(-4.974 -4.978)" fill="#9b9b9b"/>
          </g>
        </g>
      </g>
    </g>
    <g id="组_8" data-name="组 8">
      <g id="组_7" data-name="组 7" clip-path="url(#clip-path-2)">
        <g id="组_6" data-name="组 6">
          <g id="组_5" data-name="组 5" clip-path="url(#clip-path-5)">
            <rect id="矩形_3" data-name="矩形 3" width="21.842" height="12.538" transform="translate(3.02 13.193)" fill="#9b9b9b"/>
          </g>
        </g>
      </g>
    </g>
    <g id="组_12" data-name="组 12">
      <g id="组_11" data-name="组 11" clip-path="url(#clip-path-2)">
        <g id="组_10" data-name="组 10">
          <g id="组_9" data-name="组 9" clip-path="url(#clip-path-7)">
            <rect id="矩形_6" data-name="矩形 6" width="19.52" height="12.538" transform="translate(5.342 17.745)" fill="#9b9b9b"/>
          </g>
        </g>
      </g>
    </g>
    <g id="组_16" data-name="组 16">
      <g id="组_15" data-name="组 15" clip-path="url(#clip-path-2)">
        <g id="组_14" data-name="组 14">
          <g id="组_13" data-name="组 13" clip-path="url(#clip-path-9)">
            <rect id="矩形_9" data-name="矩形 9" width="17.198" height="12.538" transform="translate(7.664 22.298)" fill="#9b9b9b"/>
          </g>
        </g>
      </g>
    </g>
    <g id="组_20" data-name="组 20">
      <g id="组_19" data-name="组 19" clip-path="url(#clip-path-2)">
        <g id="组_18" data-name="组 18">
          <g id="组_17" data-name="组 17" clip-path="url(#clip-path-11)">
            <rect id="矩形_12" data-name="矩形 12" width="25.465" height="29.672" transform="translate(39.758 3.239)" fill="#9b9b9b"/>
          </g>
        </g>
      </g>
    </g>
    <g id="组_24" data-name="组 24">
      <g id="组_23" data-name="组 23" clip-path="url(#clip-path-2)">
        <g id="组_22" data-name="组 22">
          <g id="组_21" data-name="组 21" clip-path="url(#clip-path-13)">
            <rect id="矩形_14" data-name="矩形 14" width="22.736" height="25.159" transform="translate(56.801 8.022)" fill="#9b9b9b"/>
          </g>
        </g>
      </g>
    </g>
    <g id="组_28" data-name="组 28">
      <g id="组_27" data-name="组 27" clip-path="url(#clip-path-2)">
        <g id="组_26" data-name="组 26">
          <g id="组_25" data-name="组 25" clip-path="url(#clip-path-15)">
            <rect id="矩形_16" data-name="矩形 16" width="22.963" height="24.619" transform="translate(69.802 8.292)" fill="#9b9b9b"/>
          </g>
        </g>
      </g>
    </g>
    <g id="组_32" data-name="组 32">
      <g id="组_31" data-name="组 31" clip-path="url(#clip-path-2)">
        <g id="组_30" data-name="组 30">
          <g id="组_29" data-name="组 29" clip-path="url(#clip-path-17)">
            <rect id="矩形_18" data-name="矩形 18" width="24.555" height="30.213" transform="translate(88.058 2.969)" fill="#9b9b9b"/>
          </g>
        </g>
      </g>
    </g>
    <g id="组_36" data-name="组 36">
      <g id="组_35" data-name="组 35" clip-path="url(#clip-path-2)">
        <g id="组_34" data-name="组 34">
          <g id="组_33" data-name="组 33" clip-path="url(#clip-path-19)">
            <rect id="矩形_20" data-name="矩形 20" width="22.495" height="25.159" transform="translate(104.112 8.022)" fill="#9b9b9b"/>
          </g>
        </g>
      </g>
    </g>
    <g id="组_40" data-name="组 40">
      <g id="组_39" data-name="组 39" clip-path="url(#clip-path-2)">
        <g id="组_38" data-name="组 38">
          <g id="组_37" data-name="组 37" clip-path="url(#clip-path-21)">
            <rect id="矩形_22" data-name="矩形 22" width="21.973" height="30.753" transform="translate(118.467 2.158)" fill="#9b9b9b"/>
          </g>
        </g>
      </g>
    </g>
    <g id="组_44" data-name="组 44">
      <g id="组_43" data-name="组 43" clip-path="url(#clip-path-2)">
        <g id="组_42" data-name="组 42">
          <g id="组_41" data-name="组 41" clip-path="url(#clip-path-23)">
            <rect id="矩形_24" data-name="矩形 24" width="23.458" height="25.159" transform="translate(132.02 8.022)" fill="#9b9b9b"/>
          </g>
        </g>
      </g>
    </g>
    <g id="组_48" data-name="组 48">
      <g id="组_47" data-name="组 47" clip-path="url(#clip-path-2)">
        <g id="组_46" data-name="组 46">
          <g id="组_45" data-name="组 45" clip-path="url(#clip-path-25)">
            <rect id="矩形_26" data-name="矩形 26" width="23.458" height="25.159" transform="translate(146.766 8.022)" fill="#9b9b9b"/>
          </g>
        </g>
      </g>
    </g>
    <g id="组_52" data-name="组 52">
      <g id="组_51" data-name="组 51" clip-path="url(#clip-path-2)">
        <g id="组_50" data-name="组 50">
          <g id="组_49" data-name="组 49" clip-path="url(#clip-path-27)">
            <rect id="矩形_28" data-name="矩形 28" width="13.251" height="30.753" transform="translate(161.627 2.158)" fill="#9b9b9b"/>
          </g>
        </g>
      </g>
    </g>
  </g>
</svg>
