<svg xmlns="http://www.w3.org/2000/svg" xmlns:xlink="http://www.w3.org/1999/xlink" width="170" height="36" viewBox="0 0 170 36">
  <defs>
    <clipPath id="clip-path">
      <rect id="crop" width="170" height="36" fill="none"/>
    </clipPath>
    <clipPath id="clip-path-2">
      <rect id="矩形_181" data-name="矩形 181" width="1024" height="1758" transform="translate(-42 -33)" fill="none"/>
    </clipPath>
    <clipPath id="clip-path-3">
      <path id="路径_80" data-name="路径 80" d="M36.026,18.717,28.532,31.826a1.881,1.881,0,0,1-1.176.686H12.368a1.881,1.881,0,0,1-1.176-.686L3.7,18.717a1.917,1.917,0,0,1,0-1.371l7.494-13.11a1.881,1.881,0,0,1,1.176-.686H27.356a1.881,1.881,0,0,1,1.176.686l7.494,13.11A1.917,1.917,0,0,1,36.026,18.717Zm3.2-2.684L31.259,2.093a4.384,4.384,0,0,0-3.428-2H11.893a4.383,4.383,0,0,0-3.427,2L.5,16.033a4.475,4.475,0,0,0,0,4L8.466,33.97a4.382,4.382,0,0,0,3.427,2H27.831a4.383,4.383,0,0,0,3.428-2l7.969-13.94A4.475,4.475,0,0,0,39.228,16.033Z" fill="none" clip-rule="evenodd"/>
    </clipPath>
    <clipPath id="clip-path-5">
      <rect id="矩形_183" data-name="矩形 183" width="11.842" height="2.538" transform="translate(8.02 18.265)" fill="none"/>
    </clipPath>
    <clipPath id="clip-path-7">
      <rect id="矩形_186" data-name="矩形 186" width="9.52" height="2.538" transform="translate(10.342 22.818)" fill="none"/>
    </clipPath>
    <clipPath id="clip-path-9">
      <rect id="矩形_189" data-name="矩形 189" width="7.198" height="2.538" transform="translate(12.664 27.37)" fill="none"/>
    </clipPath>
    <clipPath id="clip-path-11">
      <path id="路径_81" data-name="路径 81" d="M60.223,27.984H56.852V19.242H48.143v8.742H44.758V8.312h3.385V16.5h8.709V8.312h3.371V27.984" fill="none" clip-rule="evenodd"/>
    </clipPath>
    <clipPath id="clip-path-13">
      <path id="路径_82" data-name="路径 82" d="M68.342,15.729a2.723,2.723,0,0,0-2.16.946,4.919,4.919,0,0,0-1.05,2.635h6.194v-.244a6.013,6.013,0,0,0-.208-1.249,3.191,3.191,0,0,0-.515-1.068,2.5,2.5,0,0,0-.9-.743A3.026,3.026,0,0,0,68.342,15.729Zm.388,12.525a7.369,7.369,0,0,1-2.889-.541,6.346,6.346,0,0,1-2.181-1.486,6.515,6.515,0,0,1-1.378-2.243,7.969,7.969,0,0,1-.481-2.8v-.541a9.106,9.106,0,0,1,.508-3.128A7.17,7.17,0,0,1,63.7,15.141a6.135,6.135,0,0,1,2.081-1.513,6.246,6.246,0,0,1,2.575-.533,6.525,6.525,0,0,1,2.742.533,5.187,5.187,0,0,1,1.927,1.493A6.457,6.457,0,0,1,74.162,17.4a10.676,10.676,0,0,1,.374,2.905v1.406H65.078a5.305,5.305,0,0,0,.355,1.567,3.854,3.854,0,0,0,.782,1.236,3.6,3.6,0,0,0,1.171.818,3.769,3.769,0,0,0,1.532.3,4.29,4.29,0,0,0,2.093-.487,4.921,4.921,0,0,0,1.545-1.337L74.309,25.5a6.026,6.026,0,0,1-.863,1.02,5.87,5.87,0,0,1-1.2.878,6.893,6.893,0,0,1-1.558.622A7.48,7.48,0,0,1,68.73,28.254Z" fill="none" clip-rule="evenodd"/>
    </clipPath>
    <clipPath id="clip-path-15">
      <path id="路径_83" data-name="路径 83" d="M81.251,18.175l2.756-4.81h3.612l-4.428,7.2,4.575,7.418H84.18l-2.89-5-2.876,5H74.8l4.575-7.418-4.415-7.2h3.585l2.7,4.81" fill="none" clip-rule="evenodd"/>
    </clipPath>
    <clipPath id="clip-path-17">
      <path id="路径_84" data-name="路径 84" d="M104.228,22.917a3.023,3.023,0,0,0-.174-1.061,2.105,2.105,0,0,0-.635-.858,5.25,5.25,0,0,0-1.271-.749,19.35,19.35,0,0,0-2.08-.75,19.769,19.769,0,0,1-2.569-.96,8.843,8.843,0,0,1-2.026-1.256,5.362,5.362,0,0,1-1.332-1.648A4.587,4.587,0,0,1,93.66,13.5a4.805,4.805,0,0,1,.5-2.189,5.164,5.164,0,0,1,1.411-1.729,6.673,6.673,0,0,1,2.181-1.135,9.182,9.182,0,0,1,2.809-.406,8.553,8.553,0,0,1,2.956.48,6.6,6.6,0,0,1,2.214,1.3,5.646,5.646,0,0,1,1.867,4.229h-3.372a3.8,3.8,0,0,0-.22-1.318,2.759,2.759,0,0,0-.676-1.04,3.1,3.1,0,0,0-1.15-.682,5,5,0,0,0-1.646-.243,5.284,5.284,0,0,0-1.552.2,3.1,3.1,0,0,0-1.09.568,2.231,2.231,0,0,0-.642.864,2.784,2.784,0,0,0-.208,1.081,2.173,2.173,0,0,0,1.024,1.824,10.815,10.815,0,0,0,3.124,1.351,18.136,18.136,0,0,1,2.849,1.081,8.184,8.184,0,0,1,2,1.345,4.86,4.86,0,0,1,1.184,1.689,5.481,5.481,0,0,1,.388,2.114,5.006,5.006,0,0,1-.488,2.236,4.775,4.775,0,0,1-1.392,1.689,6.489,6.489,0,0,1-2.187,1.067,10.278,10.278,0,0,1-2.863.372,10.141,10.141,0,0,1-2.769-.385,7.793,7.793,0,0,1-2.448-1.162,6.031,6.031,0,0,1-1.746-1.939,5.423,5.423,0,0,1-.662-2.729h3.384a3.6,3.6,0,0,0,.328,1.6,2.978,2.978,0,0,0,.9,1.094,3.748,3.748,0,0,0,1.344.622,6.845,6.845,0,0,0,1.672.2,4.147,4.147,0,0,0,2.656-.723,2.341,2.341,0,0,0,.889-1.912" fill="none" clip-rule="evenodd"/>
    </clipPath>
    <clipPath id="clip-path-19">
      <path id="路径_85" data-name="路径 85" d="M115.667,25.633a3.279,3.279,0,0,0,1.1-.183,2.736,2.736,0,0,0,.9-.513,2.6,2.6,0,0,0,.615-.791,2.442,2.442,0,0,0,.261-1h3.064a4.736,4.736,0,0,1-.515,1.986,5.425,5.425,0,0,1-1.271,1.628,5.988,5.988,0,0,1-1.853,1.094,6.349,6.349,0,0,1-2.261.4,6.791,6.791,0,0,1-2.91-.581,5.833,5.833,0,0,1-2.06-1.581,6.646,6.646,0,0,1-1.224-2.337,9.847,9.847,0,0,1-.4-2.838v-.473a9.845,9.845,0,0,1,.4-2.837,6.722,6.722,0,0,1,1.224-2.344,5.816,5.816,0,0,1,2.054-1.587,7.405,7.405,0,0,1,5.291-.176,5.409,5.409,0,0,1,1.846,1.135,5.186,5.186,0,0,1,1.2,1.743,6.113,6.113,0,0,1,.475,2.229h-3.064a3.447,3.447,0,0,0-.234-1.108,2.866,2.866,0,0,0-.575-.919,2.7,2.7,0,0,0-.89-.621,2.891,2.891,0,0,0-1.177-.23,2.975,2.975,0,0,0-1.632.412,3.042,3.042,0,0,0-1.017,1.074,4.581,4.581,0,0,0-.515,1.514,10.582,10.582,0,0,0-.14,1.715v.473a10.642,10.642,0,0,0,.14,1.737,4.567,4.567,0,0,0,.515,1.506,2.808,2.808,0,0,0,2.649,1.473" fill="none" clip-rule="evenodd"/>
    </clipPath>
    <clipPath id="clip-path-21">
      <path id="路径_86" data-name="路径 86" d="M126.718,14.959a5.385,5.385,0,0,1,1.766-1.371,5.105,5.105,0,0,1,2.261-.493,5.932,5.932,0,0,1,1.926.3,3.612,3.612,0,0,1,1.485.952,4.407,4.407,0,0,1,.95,1.7,8.389,8.389,0,0,1,.334,2.533v9.4h-3.251V18.553a2.9,2.9,0,0,0-.649-2.142,2.634,2.634,0,0,0-1.906-.628,3.14,3.14,0,0,0-1.746.473,3.474,3.474,0,0,0-1.17,1.284V27.984h-3.251V7.231h3.251v7.728" fill="none" clip-rule="evenodd"/>
    </clipPath>
    <clipPath id="clip-path-23">
      <path id="路径_87" data-name="路径 87" d="M140.271,20.823a8.336,8.336,0,0,0,.2,1.864,4.678,4.678,0,0,0,.629,1.534,3.157,3.157,0,0,0,1.09,1.033,3.143,3.143,0,0,0,4.214-1.033,4.881,4.881,0,0,0,.629-1.534,8.1,8.1,0,0,0,.208-1.864v-.284a7.953,7.953,0,0,0-.208-1.844,4.8,4.8,0,0,0-.635-1.527,3.287,3.287,0,0,0-1.091-1.047,3.03,3.03,0,0,0-1.571-.392,2.961,2.961,0,0,0-1.559.392,3.322,3.322,0,0,0-1.077,1.047,4.684,4.684,0,0,0-.629,1.527,8.182,8.182,0,0,0-.2,1.844Zm-3.251-.284a9.135,9.135,0,0,1,.461-2.952,7.025,7.025,0,0,1,1.325-2.358,6.068,6.068,0,0,1,2.107-1.567,6.732,6.732,0,0,1,2.823-.567,6.858,6.858,0,0,1,2.849.567,6.044,6.044,0,0,1,2.12,1.567,6.926,6.926,0,0,1,1.318,2.358,9.245,9.245,0,0,1,.455,2.952v.284a9.311,9.311,0,0,1-.455,2.959,6.829,6.829,0,0,1-1.318,2.357,6,6,0,0,1-2.113,1.554,7.451,7.451,0,0,1-5.673,0,6,6,0,0,1-2.113-1.554,6.925,6.925,0,0,1-1.325-2.357,9.2,9.2,0,0,1-.461-2.959Z" fill="none" clip-rule="evenodd"/>
    </clipPath>
    <clipPath id="clip-path-25">
      <path id="路径_88" data-name="路径 88" d="M155.016,20.823a8.335,8.335,0,0,0,.2,1.864,4.7,4.7,0,0,0,.629,1.534,3.157,3.157,0,0,0,1.09,1.033,3.143,3.143,0,0,0,4.214-1.033,4.881,4.881,0,0,0,.629-1.534,8.1,8.1,0,0,0,.207-1.864v-.284a7.954,7.954,0,0,0-.207-1.844,4.781,4.781,0,0,0-.636-1.527,3.275,3.275,0,0,0-1.09-1.047,3.031,3.031,0,0,0-1.572-.392,2.959,2.959,0,0,0-1.558.392,3.322,3.322,0,0,0-1.077,1.047,4.706,4.706,0,0,0-.629,1.527,8.181,8.181,0,0,0-.2,1.844Zm-3.25-.284a9.135,9.135,0,0,1,.461-2.952,7.025,7.025,0,0,1,1.325-2.358,6.068,6.068,0,0,1,2.107-1.567,6.731,6.731,0,0,1,2.822-.567,6.863,6.863,0,0,1,2.85.567,6.044,6.044,0,0,1,2.12,1.567,6.927,6.927,0,0,1,1.318,2.358,9.245,9.245,0,0,1,.455,2.952v.284a9.311,9.311,0,0,1-.455,2.959,6.829,6.829,0,0,1-1.318,2.357,6.005,6.005,0,0,1-2.113,1.554,7.451,7.451,0,0,1-5.673,0,6,6,0,0,1-2.113-1.554,6.925,6.925,0,0,1-1.325-2.357,9.2,9.2,0,0,1-.461-2.959Z" fill="none" clip-rule="evenodd"/>
    </clipPath>
    <clipPath id="clip-path-27">
      <rect id="矩形_208" data-name="矩形 208" width="3.251" height="20.753" transform="translate(166.627 7.231)" fill="none"/>
    </clipPath>
  </defs>
  <g id="logo" clip-path="url(#clip-path)">
    <g id="组_348" data-name="组 348">
      <g id="组_347" data-name="组 347" clip-path="url(#clip-path-2)">
        <g id="组_346" data-name="组 346">
          <g id="组_345" data-name="组 345" clip-path="url(#clip-path-3)">
            <rect id="矩形_180" data-name="矩形 180" width="49.673" height="45.874" transform="translate(-4.974 -4.906)" fill="#0c9"/>
          </g>
        </g>
      </g>
    </g>
    <g id="组_352" data-name="组 352">
      <g id="组_351" data-name="组 351" clip-path="url(#clip-path-2)">
        <g id="组_350" data-name="组 350">
          <g id="组_349" data-name="组 349" clip-path="url(#clip-path-5)">
            <rect id="矩形_182" data-name="矩形 182" width="21.842" height="12.538" transform="translate(3.02 13.265)" fill="#0c9"/>
          </g>
        </g>
      </g>
    </g>
    <g id="组_356" data-name="组 356">
      <g id="组_355" data-name="组 355" clip-path="url(#clip-path-2)">
        <g id="组_354" data-name="组 354">
          <g id="组_353" data-name="组 353" clip-path="url(#clip-path-7)">
            <rect id="矩形_185" data-name="矩形 185" width="19.52" height="12.538" transform="translate(5.342 17.818)" fill="#0c9"/>
          </g>
        </g>
      </g>
    </g>
    <g id="组_360" data-name="组 360">
      <g id="组_359" data-name="组 359" clip-path="url(#clip-path-2)">
        <g id="组_358" data-name="组 358">
          <g id="组_357" data-name="组 357" clip-path="url(#clip-path-9)">
            <rect id="矩形_188" data-name="矩形 188" width="17.198" height="12.538" transform="translate(7.664 22.37)" fill="#0c9"/>
          </g>
        </g>
      </g>
    </g>
    <g id="组_364" data-name="组 364">
      <g id="组_363" data-name="组 363" clip-path="url(#clip-path-2)">
        <g id="组_362" data-name="组 362">
          <g id="组_361" data-name="组 361" clip-path="url(#clip-path-11)">
            <rect id="矩形_191" data-name="矩形 191" width="25.465" height="29.672" transform="translate(39.758 3.312)" fill="#0c9"/>
          </g>
        </g>
      </g>
    </g>
    <g id="组_368" data-name="组 368">
      <g id="组_367" data-name="组 367" clip-path="url(#clip-path-2)">
        <g id="组_366" data-name="组 366">
          <g id="组_365" data-name="组 365" clip-path="url(#clip-path-13)">
            <rect id="矩形_193" data-name="矩形 193" width="22.736" height="25.159" transform="translate(56.801 8.095)" fill="#0c9"/>
          </g>
        </g>
      </g>
    </g>
    <g id="组_372" data-name="组 372">
      <g id="组_371" data-name="组 371" clip-path="url(#clip-path-2)">
        <g id="组_370" data-name="组 370">
          <g id="组_369" data-name="组 369" clip-path="url(#clip-path-15)">
            <rect id="矩形_195" data-name="矩形 195" width="22.963" height="24.619" transform="translate(69.802 8.365)" fill="#0c9"/>
          </g>
        </g>
      </g>
    </g>
    <g id="组_376" data-name="组 376">
      <g id="组_375" data-name="组 375" clip-path="url(#clip-path-2)">
        <g id="组_374" data-name="组 374">
          <g id="组_373" data-name="组 373" clip-path="url(#clip-path-17)">
            <rect id="矩形_197" data-name="矩形 197" width="24.555" height="30.213" transform="translate(88.058 3.041)" fill="#0c9"/>
          </g>
        </g>
      </g>
    </g>
    <g id="组_380" data-name="组 380">
      <g id="组_379" data-name="组 379" clip-path="url(#clip-path-2)">
        <g id="组_378" data-name="组 378">
          <g id="组_377" data-name="组 377" clip-path="url(#clip-path-19)">
            <rect id="矩形_199" data-name="矩形 199" width="22.495" height="25.159" transform="translate(104.112 8.095)" fill="#0c9"/>
          </g>
        </g>
      </g>
    </g>
    <g id="组_384" data-name="组 384">
      <g id="组_383" data-name="组 383" clip-path="url(#clip-path-2)">
        <g id="组_382" data-name="组 382">
          <g id="组_381" data-name="组 381" clip-path="url(#clip-path-21)">
            <rect id="矩形_201" data-name="矩形 201" width="21.973" height="30.753" transform="translate(118.467 2.231)" fill="#0c9"/>
          </g>
        </g>
      </g>
    </g>
    <g id="组_388" data-name="组 388">
      <g id="组_387" data-name="组 387" clip-path="url(#clip-path-2)">
        <g id="组_386" data-name="组 386">
          <g id="组_385" data-name="组 385" clip-path="url(#clip-path-23)">
            <rect id="矩形_203" data-name="矩形 203" width="23.458" height="25.159" transform="translate(132.02 8.095)" fill="#0c9"/>
          </g>
        </g>
      </g>
    </g>
    <g id="组_392" data-name="组 392">
      <g id="组_391" data-name="组 391" clip-path="url(#clip-path-2)">
        <g id="组_390" data-name="组 390">
          <g id="组_389" data-name="组 389" clip-path="url(#clip-path-25)">
            <rect id="矩形_205" data-name="矩形 205" width="23.458" height="25.159" transform="translate(146.766 8.095)" fill="#0c9"/>
          </g>
        </g>
      </g>
    </g>
    <g id="组_396" data-name="组 396">
      <g id="组_395" data-name="组 395" clip-path="url(#clip-path-2)">
        <g id="组_394" data-name="组 394">
          <g id="组_393" data-name="组 393" clip-path="url(#clip-path-27)">
            <rect id="矩形_207" data-name="矩形 207" width="13.251" height="30.753" transform="translate(161.627 2.231)" fill="#0c9"/>
          </g>
        </g>
      </g>
    </g>
  </g>
</svg>
